# xmcd CD database file
#
# Track frame offsets:
#	150
#	18027
#	35527
#	54540
#	73285
#	94630
#	116720
#	135667
#	156637
#	176017
#
# Disc length: 2658 seconds
#
# Revision: 0
# Processed by: cddbd v1.5PL3 Copyright (c) Steve Scherf et al.
# Submitted via: CDex 1.50beta9
#
DISCID=8a0a600a
DTITLE=田山真美子 - 詩小説〜シナリリック〜
DYEAR=1900
DGENRE=Pop
TTITLE0=ブックストアと公衆電話
TTITLE1=２人がふたりに逢える場所
TTITLE2=雨ばかり見てる
TTITLE3=渚の観覧車
TTITLE4=はじめての朝帰り
TTITLE5=夜に眠る魚のように
TTITLE6=向こう側のプライヴァシィ
TTITLE7=無人駅
TTITLE8=あれが最後のコスモス日和
TTITLE9=永遠のターミナル
EXTD=
EXTT0=
EXTT1=
EXTT2=
EXTT3=
EXTT4=
EXTT5=
EXTT6=
EXTT7=
EXTT8=
EXTT9=
PLAYORDER=
